<svg width="24" height="24" viewBox="0 0 24 24" fill="none" xmlns="http://www.w3.org/2000/svg">
  <path fill="#E6D8C0" fill-rule="evenodd" clip-rule="evenodd" d="M12 3a9 9 0 0 0-8.687 11.36 7.42 7.42 0 0 1 1.366-.788A3.48 3.48 0 0 1 4 11.5a3.5 3.5 0 1 1 6.321 2.072c.455.196.876.437 1.26.71l.037.028c.403-.432.876-.828 1.41-1.165A3.991 3.991 0 0 1 11.5 10a4 4 0 1 1 7.346 2.192c.773.175 1.475.46 2.097.824A9 9 0 0 0 12 3ZM10.491 15.957a3.437 3.437 0 0 1-.072-.046C9.658 15.368 8.679 15 7.5 15c-1.438 0-2.589.549-3.405 1.306A9 9 0 0 0 12 21a9.003 9.003 0 0 0 8.456-5.911 2.707 2.707 0 0 1-.051-.035C19.569 14.434 18.454 14 17.091 14 13.784 14 12 16.529 12 18a1 1 0 1 1-2 0c0-.662.17-1.362.491-2.043ZM1 12C1 5.925 5.925 1 12 1s11 4.925 11 11-4.925 11-11 11S1 18.075 1 12Zm14.5-4a2 2 0 1 0 0 4 2 2 0 0 0 0-4ZM6 11.5a1.5 1.5 0 1 1 3 0 1.5 1.5 0 0 1-3 0Z"/>
</svg>
