<svg width="24" height="24" viewBox="0 0 24 24" fill="none" xmlns="http://www.w3.org/2000/svg">
  <path d="M7.2 3.75h7.1c.55 0 .82 0 1.07.08.22.07.43.18.61.33.2.16.36.39.68.83l2.14 2.96c.3.41.45.62.54.85.08.21.12.44.12.67.01.25.01.5.01 1.02v6.31c0 1.12 0 1.68-.22 2.11-.19.38-.5.68-.87.88-.43.21-.99.21-2.11.21H7.2c-1.12 0-1.68 0-2.11-.21a2.03 2.03 0 0 1-.88-.88C4 18.48 4 17.92 4 16.8V6.95c0-1.12 0-1.68.21-2.11.2-.38.5-.68.88-.88.43-.21.99-.21 2.11-.21Z" stroke="#E6D8C0" stroke-width="2" stroke-linecap="round" stroke-linejoin="round"/>
  <path d="M15.5 4.25V7.2c0 .63 0 .95.12 1.19.11.22.29.4.51.51.24.12.56.12 1.19.12h2.08" stroke="#E6D8C0" stroke-width="2" stroke-linecap="round" stroke-linejoin="round"/>
  <path d="M8 12h8M8 15h8M8 18h5" stroke="#E6D8C0" stroke-width="2" stroke-linecap="round" stroke-linejoin="round"/>
</svg>
