<svg width="24" height="24" viewBox="0 0 24 24" fill="none" xmlns="http://www.w3.org/2000/svg">
  <path d="M4 7H20" stroke="currentColor" stroke-width="2" stroke-linecap="round"/>
  <path d="M4 17H20" stroke="currentColor" stroke-width="2" stroke-linecap="round"/>
  <path d="M9 4.5V9.5" stroke="currentColor" stroke-width="2" stroke-linecap="round"/>
  <path d="M15 14.5V19.5" stroke="currentColor" stroke-width="2" stroke-linecap="round"/>
  <path d="M9 9.5C10.3807 9.5 11.5 8.38071 11.5 7C11.5 5.61929 10.3807 4.5 9 4.5C7.61929 4.5 6.5 5.61929 6.5 7C6.5 8.38071 7.61929 9.5 9 9.5Z" fill="currentColor"/>
  <path d="M15 19.5C16.3807 19.5 17.5 18.3807 17.5 17C17.5 15.6193 16.3807 14.5 15 14.5C13.6193 14.5 12.5 15.6193 12.5 17C12.5 18.3807 13.6193 19.5 15 19.5Z" fill="currentColor"/>
</svg>
