<?xml version="1.0" encoding="iso-8859-1"?>
<!-- Uploaded to: SVG Repo, www.svgrepo.com, Generator: SVG Repo Mixer Tools -->
<svg fill="#f2c063" height="800px" width="800px" version="1.1" id="Layer_1" xmlns="http://www.w3.org/2000/svg" xmlns:xlink="http://www.w3.org/1999/xlink" 
	 viewBox="0 0 512 512" xml:space="preserve">
<g>
	<g>
		<path d="M389.565,244.87c-9.22,0-16.696,7.475-16.696,16.696c0,9.206-7.49,16.696-16.696,16.696
			c-9.206,0-16.696-7.49-16.696-16.696c0-9.22-7.475-16.696-16.696-16.696s-16.696,7.475-16.696,16.696
			c0,9.206-7.49,16.696-16.696,16.696s-16.696-7.49-16.696-16.696c0-9.22-7.475-16.696-16.696-16.696
			c-9.22,0-16.696,7.475-16.696,16.696c0,27.618,22.469,50.087,50.087,50.087c12.819,0,24.523-4.846,33.391-12.794
			c8.869,7.949,20.572,12.794,33.391,12.794c27.618,0,50.087-22.469,50.087-50.087C406.261,252.345,398.786,244.87,389.565,244.87z"
			/>
	</g>
</g>
<g>
	<g>
		<path d="M506.435,50.087C506.435,22.469,483.966,0,456.348,0h-33.391c-27.55,0-53.277,13.828-68.708,36.098
			c-10.228-1.773-20.739-2.707-31.466-2.707s-21.238,0.934-31.466,2.707C275.886,13.828,250.159,0,222.609,0h-33.391
			c-27.618,0-50.087,22.469-50.087,50.087v33.391c0,19.325,6.725,37.941,18.775,52.735c-12.013,24.406-18.775,51.841-18.775,80.83
			c0,0.016,0,0.03,0,0.046c-13.961-10.505-31.309-16.741-50.087-16.741c-46.03,0-83.478,37.448-83.478,83.478v144.696
			c0,46.03,37.448,83.478,83.478,83.478h66.783h333.913c9.22,0,16.696-7.475,16.696-16.696v-77.913
			c0-34.847-11.818-67.947-33.542-94.648c21.269-30.214,33.542-66.875,33.542-105.7c0-28.989-6.762-56.425-18.775-80.83
			c12.05-14.793,18.775-33.41,18.775-52.735V50.087z M172.522,50.087c0-9.206,7.49-16.696,16.696-16.696h33.391
			c12.398,0,24.181,4.671,33.208,12.642c-31.192,12.258-58.239,32.818-78.422,58.941c-3.162-6.65-4.873-13.981-4.873-21.496V50.087z
			 M172.522,322.53c19.427,27.68,46.402,49.959,78.407,63.568c-5.626,9.494-9.415,20.189-10.9,31.604
			c-24.97-10.322-47.934-25.292-67.507-44.121V322.53z M155.826,478.608H89.044c-27.618,0.001-50.087-22.468-50.087-50.086V283.826
			c0-27.618,22.469-50.087,50.087-50.087c21.766,0,40.323,13.959,47.215,33.391H89.044c-9.22,0-16.696,7.475-16.696,16.696
			c0,9.22,7.475,16.696,16.696,16.696h50.087v128c0,9.22,7.475,16.696,16.696,16.696s16.696-7.475,16.696-16.696v-11.196
			c21.483,16.146,45.477,28.781,70.984,37.297c2.876,8.712,7.133,16.8,12.54,23.985H155.826z M322.783,478.609
			c-27.618,0-50.087-22.469-50.087-50.087c0-21.766,13.959-40.323,33.391-47.215v47.215c0,9.22,7.475,16.696,16.696,16.696
			s16.696-7.475,16.696-16.696v-47.215c19.433,6.892,33.391,25.45,33.391,47.215C372.87,456.14,350.401,478.609,322.783,478.609z
			 M473.042,417.33c0,0.02,0.001,0.04,0.001,0.061v61.217H389.52c5.407-7.186,9.665-15.275,12.541-23.989
			C427.522,446.113,451.556,433.469,473.042,417.33z M394.636,386.099c21.146-8.992,40.093-21.769,56.12-37.389
			c6.871,9.424,12.237,19.752,15.982,30.674c-18.117,16.096-38.878,29.077-61.203,38.313
			C404.05,406.285,400.262,395.59,394.636,386.099z M370.003,359.732c-13.44-9.255-29.705-14.689-47.221-14.689
			c-17.516,0-33.781,5.434-47.221,14.689c-61.058-20.174-103.04-77.725-103.04-142.689c0-82.854,67.407-150.261,150.261-150.261
			s150.261,67.407,150.261,150.261C473.043,282.007,431.062,339.558,370.003,359.732z M473.043,83.478
			c0,7.515-1.711,14.846-4.873,21.496c-20.183-26.123-47.23-46.683-78.422-58.941c9.027-7.971,20.809-12.642,33.208-12.642h33.391
			c9.206,0,16.696,7.49,16.696,16.696V83.478z"/>
	</g>
</g>
<g>
	<g>
		<path d="M256,144.696c-27.618,0-50.087,22.469-50.087,50.087c0,9.22,7.475,16.696,16.696,16.696s16.696-7.475,16.696-16.696
			c0-9.206,7.49-16.696,16.696-16.696c9.206,0,16.696,7.49,16.696,16.696c0,9.22,7.475,16.696,16.696,16.696
			s16.696-7.475,16.696-16.696C306.087,167.165,283.618,144.696,256,144.696z"/>
	</g>
</g>
<g>
	<g>
		<path d="M389.565,144.696c-27.618,0-50.087,22.469-50.087,50.087c0,9.22,7.475,16.696,16.696,16.696
			c9.22,0,16.696-7.475,16.696-16.696c0-9.206,7.49-16.696,16.696-16.696c9.206,0,16.696,7.49,16.696,16.696
			c0,9.22,7.475,16.696,16.696,16.696c9.22,0,16.696-7.475,16.696-16.696C439.652,167.165,417.183,144.696,389.565,144.696z"/>
	</g>
</g>
</svg>
