<svg width="24" height="24" viewBox="0 0 24 24" fill="none" xmlns="http://www.w3.org/2000/svg">
  <path d="M4 20h4.4c.35 0 .53 0 .7-.04.15-.04.29-.1.42-.18.15-.09.27-.22.52-.47L19.25 10.1c.84-.84 1.26-1.26 1.42-1.75.14-.43.14-.9 0-1.33-.16-.49-.58-.91-1.42-1.75l-.52-.52c-.84-.84-1.26-1.26-1.75-1.42-.43-.14-.9-.14-1.33 0-.49.16-.91.58-1.75 1.42L4.69 13.96c-.25.25-.38.37-.47.52-.08.13-.14.27-.18.42-.04.17-.04.35-.04.7V20Z" stroke="#E6D8C0" stroke-width="2" stroke-linecap="round" stroke-linejoin="round"/>
  <path d="M13 5.75 18.25 11M4.5 19.5l4.1-.78" stroke="#E6D8C0" stroke-width="2" stroke-linecap="round" stroke-linejoin="round"/>
</svg>
