<svg width="24" height="24" viewBox="0 0 24 24" fill="none" xmlns="http://www.w3.org/2000/svg">
  <path d="M11.269 4.411c.232-.519.347-.779.509-.859a.5.5 0 0 1 .444 0c.161.08.277.34.508.859l1.845 4.137c.068.154.102.23.155.289a.5.5 0 0 0 .168.122c.073.032.156.041.323.059l4.505.475c.565.06.848.09.974.218a.5.5 0 0 1 .137.423c-.026.178-.237.369-.66.75l-3.364 3.03c-.125.114-.188.17-.227.239a.5.5 0 0 0-.064.197c-.009.079.009.161.043.326l.944 4.43c.118.556.177.834.094.994a.5.5 0 0 1-.36.261c-.177.03-.424-.112-.916-.396l-3.928-2.263c-.146-.084-.219-.126-.296-.142a.5.5 0 0 0-.208 0c-.077.016-.15.058-.296.142l-3.923 2.263c-.493.284-.74.426-.917.396a.5.5 0 0 1-.36-.261c-.083-.16-.024-.438.094-.994l.94-4.43c.035-.165.052-.247.044-.326a.5.5 0 0 0-.064-.197c-.04-.069-.102-.125-.227-.238l-3.365-3.031c-.422-.381-.633-.572-.659-.75a.5.5 0 0 1 .137-.423c.126-.129.409-.159.974-.218l4.504-.475c.168-.018.251-.027.324-.059a.5.5 0 0 0 .168-.122c.053-.059.087-.136.155-.289l1.845-4.137Z" stroke="#E6D8C0" stroke-width="2" stroke-linecap="round" stroke-linejoin="round"/>
</svg>
