<svg width="24" height="24" viewBox="0 -0.5 21 21" xmlns="http://www.w3.org/2000/svg">
  <path fill="#E6D8C0" d="M11.55 17c0 .552-.47 1-1.05 1s-1.05-.448-1.05-1V3c0-.552.47-1 1.05-1s1.05.448 1.05 1v14Zm0-17h-2.1c-1.16 0-2.1.895-2.1 2v16c0 1.105.94 2 2.1 2h2.1c1.16 0 2.1-.895 2.1-2V2c0-1.105-.94-2-2.1-2ZM4.2 17c0 .552-.47 1-1.05 1s-1.05-.448-1.05-1V7c0-.552.47-1 1.05-1s1.05.448 1.05 1v10Zm0-13H2.1C.94 4 0 4.895 0 6v12c0 1.105.94 2 2.1 2h2.1c1.16 0 2.1-.895 2.1-2V6c0-1.105-.94-2-2.1-2Zm14.7 13c0 .552-.47 1-1.05 1s-1.05-.448-1.05-1v-4c0-.552.47-1 1.05-1s1.05.448 1.05 1v4Zm0-7h-2.1c-1.16 0-2.1.895-2.1 2v6c0 1.105.94 2 2.1 2h2.1c1.16 0 2.1-.895 2.1-2v-6c0-1.105-.94-2-2.1-2Z"/>
</svg>
