<svg width="24" height="24" viewBox="0 0 24 24" fill="none" xmlns="http://www.w3.org/2000/svg">
  <path d="M4 20V8.8c0-.68 0-1.02.13-1.28.12-.23.31-.42.54-.54.26-.13.6-.13 1.28-.13h3.1c.68 0 1.02 0 1.28.13.23.12.42.31.54.54.13.26.13.6.13 1.28V20" stroke="#E6D8C0" stroke-width="2" stroke-linecap="round" stroke-linejoin="round"/>
  <path d="M11 20V5.95c0-.68 0-1.02.13-1.28.12-.23.31-.42.54-.54.26-.13.6-.13 1.28-.13h5.1c.68 0 1.02 0 1.28.13.23.12.42.31.54.54.13.26.13.6.13 1.28V20" stroke="#E6D8C0" stroke-width="2" stroke-linecap="round" stroke-linejoin="round"/>
  <path d="M7 11h1M7 15h1M14 8h3M14 12h3M14 16h3M3 20h18" stroke="#E6D8C0" stroke-width="2" stroke-linecap="round" stroke-linejoin="round"/>
</svg>
