<svg width="24" height="24" viewBox="0 0 24 24" fill="none" xmlns="http://www.w3.org/2000/svg">
  <path d="m7 21 5-4 5 4M7.8 17h8.4c1.68 0 2.52 0 3.162-.327a3 3 0 0 0 1.311-1.311C21 14.72 21 13.88 21 12.2V7.8c0-1.68 0-2.52-.327-3.162a3 3 0 0 0-1.311-1.311C18.72 3 17.88 3 16.2 3H7.8c-1.68 0-2.52 0-3.162.327a3 3 0 0 0-1.311 1.311C3 5.28 3 6.12 3 7.8v4.4c0 1.68 0 2.52.327 3.162a3 3 0 0 0 1.311 1.311C5.28 17 6.12 17 7.8 17Z" stroke="#E6D8C0" stroke-width="2" stroke-linecap="round" stroke-linejoin="round"/>
</svg>
