<svg width="64" height="64" viewBox="0 0 64 64" fill="none" xmlns="http://www.w3.org/2000/svg">
  <path d="M14 22.5C14 18.36 17.36 15 21.5 15h21c4.14 0 7.5 3.36 7.5 7.5v13C50 39.64 46.64 43 42.5 43h-21C17.36 43 14 39.64 14 35.5v-13Z" fill="#C9A66D"/>
  <path d="M27 24.5v9l8-4.5-8-4.5Z" fill="#15120E"/>
  <path d="M20 50c1.28-3.53 4.64-6 8.5-6h7c3.86 0 7.22 2.47 8.5 6" stroke="#C9A66D" stroke-width="4" stroke-linecap="round"/>
  <path d="M21 12c0-3.31 2.69-6 6-6s6 2.69 6 6" stroke="#E6D8C0" stroke-width="4" stroke-linecap="round"/>
  <path d="M31 12c0-3.31 2.69-6 6-6s6 2.69 6 6" stroke="#E6D8C0" stroke-width="4" stroke-linecap="round"/>
</svg>
