<svg width="24" height="24" viewBox="0 0 24 24" fill="none" xmlns="http://www.w3.org/2000/svg">
  <path fill-rule="evenodd" clip-rule="evenodd" d="M9.496 7.132a.997.997 0 0 0-.998.003A1 1 0 0 0 8 8v8a1 1 0 0 0 1.496.868l7-4A1 1 0 0 0 17 12a1 1 0 0 0-.504-.868l-7-4ZM13.984 12 10 14.277V9.723L13.984 12Z" fill="currentColor"/>
  <path fill-rule="evenodd" clip-rule="evenodd" d="M0 12c0-3.75 0-5.625.955-6.939a6 6 0 0 1 1.106-1.106C3.375 3 5.25 3 9 3h6c3.75 0 5.625 0 6.939.955a6 6 0 0 1 1.106 1.106C24 6.375 24 8.25 24 12s0 5.625-.955 6.939a6 6 0 0 1-1.106 1.106C20.625 21 18.75 21 15 21H9c-3.75 0-5.625 0-6.939-.955a6 6 0 0 1-1.106-1.106C0 17.625 0 15.75 0 12Zm9-7h6c1.919 0 3.198.003 4.167.108.932.1 1.337.276 1.596.465.255.185.479.409.664.664.189.259.364.664.465 1.596.105.969.108 2.248.108 4.167 0 1.919-.003 3.198-.108 4.167-.101.932-.276 1.337-.465 1.596a3.999 3.999 0 0 1-.664.664c-.259.189-.664.364-1.596.465-.969.105-2.248.108-4.167.108H9c-1.919 0-3.198-.003-4.167-.108-.932-.101-1.337-.276-1.596-.465a4 4 0 0 1-.664-.664c-.189-.259-.364-.664-.465-1.596C2.003 15.198 2 13.919 2 12c0-1.919.003-3.198.108-4.167.101-.932.276-1.337.465-1.596.185-.255.409-.479.664-.664.259-.189.664-.364 1.596-.465C5.802 5.003 7.081 5 9 5Z" fill="currentColor"/>
</svg>
